<svg class="icon" viewBox="0 0 1024 1024" xmlns="http://www.w3.org/2000/svg" width="200" height="200"><defs><style/></defs><path d="M85.434 896a42.667 42.667 0 0 1-30.294-12.373 42.667 42.667 0 0 1 0-60.587l554.667-554.667a42.667 42.667 0 0 1 60.587 0l341.333 341.334a42.667 42.667 0 0 1-60.587 60.586L640.1 358.827l-524.373 524.8A42.667 42.667 0 0 1 85.434 896z"/><path d="M640.1 597.333a42.667 42.667 0 0 1-30.293-12.373l-268.373-268.8L73.06 584.96a42.667 42.667 0 0 1-60.586-60.587L311.14 225.707a42.667 42.667 0 0 1 60.587 0l268.373 268.8 268.374-268.8a42.667 42.667 0 1 1 60.586 60.586L670.394 584.96a42.667 42.667 0 0 1-30.294 12.373z"/></svg>