<svg class="icon" viewBox="0 0 1024 1024" xmlns="http://www.w3.org/2000/svg" width="200" height="200"><defs><style/></defs><path d="M644 574.8L471.2 461.7c-18.1-11.8-43.7-4.7-50.6 16.2-1.3 3.9-2 8-2 12.3v230.4c0 4.3.7 8.4 2 12.3 6.9 20.9 32.5 28 50.6 16.2L647.1 634c8.8-5.8 14.2-15.8 14.2-26.6 0-13.3-6.5-25.5-17.3-32.6zM633.3 904H596c-15.5 0-28 12.5-28 28s12.5 28 28 28h37.3c15.5 0 28-12.5 28-28s-12.5-28-28-28z"/><path d="M885.3 64H138.7C97.6 64 64 97.6 64 138.7v746.7c0 41.1 33.6 74.7 74.7 74.7h364c15.5 0 28-12.5 28-28s-12.5-28-28-28H157.3c-20.5 0-37.3-16.8-37.3-37.3v-560h784v560c0 20.5-16.8 37.3-37.3 37.3h-140c-15.5 0-28 12.5-28 28s12.5 28 28 28h158.7c41.1 0 74.7-33.6 74.7-74.7V138.7C960 97.6 926.4 64 885.3 64zM120 250.7v-93.3c0-20.5 16.8-37.3 37.3-37.3h27.9l75.4 130.7H120zm205.4 0L249.9 120h80l75.4 130.7h-79.9zm144.7 0L394.6 120h122L592 250.7H470.1zm186.6 0L581.3 120h117.4l75.4 130.7H656.7zm247.3 0h-65.3L763.3 120h103.4c20.5 0 37.3 16.8 37.3 37.3v93.4z"/></svg>